<svg width="128" height="64" viewBox="0 0 128 64" xmlns="http://www.w3.org/2000/svg">
	<path d="M11.844 47.881V36.822q0-.343-.02-.934 0-.59-.037-1.182-.02-.591-.096-.934l.039-.153q.838-.343 1.849-.553 1.03-.21 2.002-.21 1.201 0 2.155.363.972.362 1.658 1.068.687.686 1.049 1.677.362.992.362 2.27 0 1.277-.381 2.287t-1.087 1.716q-.705.706-1.716 1.087-1.01.362-2.269.362-.59 0-1.182-.133-.572-.114-.915-.19l.114-1.564q.23.133.687.248.476.114 1.296.114 1.83 0 2.746-1.01.915-1.011.915-2.918 0-1.925-.934-2.879-.935-.972-2.65-.972-.649 0-1.259.152-.591.134-.972.344l.286-.534q.057.286.076.705.038.42.038.858v11.974z" style="font-size:19.0666px;line-height:1.25;font-family:Kufam;-inkscape-font-specification:Kufam;letter-spacing:0;word-spacing:0;baseline-shift:sub;stroke-width:4"/>
	<path d="M23.674 34.13h.235q.704.38 1.584.674.909.264 1.965.41 1.085.148 2.317.148 1.408 0 2.494-.264 1.114-.294 1.73-.94.646-.674.646-1.847 0-1.408-.822-2.024-.792-.616-2.405-.91l-2.581-.469q-1.467-.264-2.699-.938-1.232-.704-1.965-1.936-.734-1.232-.734-3.11 0-2.346 1.086-3.842 1.114-1.526 3.08-2.23 1.994-.733 4.634-.733 1.232 0 2.435.235 1.232.234 2.024.586v2.699h-.235q-.704-.352-1.789-.645-1.056-.294-2.552-.294-1.643 0-2.992.41-1.32.412-2.112 1.32-.763.91-.763 2.377 0 1.848.968 2.581.968.734 2.67 1.056l2.581.47q1.496.264 2.61.909 1.115.645 1.731 1.73.646 1.057.646 2.64 0 1.438-.558 2.523-.557 1.086-1.584 1.819-.997.704-2.405 1.056-1.408.352-3.139.352-1.232 0-2.346-.147-1.086-.146-2.054-.381-.938-.235-1.701-.528zm31.211 3.46V16.472H57.7v21.12zm-13.142 0V16.472h2.816v21.12zm1.643-9.738v-2.464h12.672v2.464zm18.539 9.738 2.346-14.08q.294-1.76.851-3.108.587-1.35 1.555-2.288.968-.939 2.493-1.408 1.525-.47 3.725-.47 1.056 0 2.112.118 1.086.088 2.23.352l.058.352q-.088.586-.146 1.466-.03.88-.03 1.76v17.307h-2.816V19.14q.03-.528.118-.997l.469.85q-.381-.175-.939-.234-.528-.059-1.173-.059-1.936 0-3.08.528-1.115.528-1.701 1.584-.558 1.056-.851 2.699l-2.347 14.08Zm2.933-6.452v-2.464h10.619v2.464zm19.536.117v-2.581h5.045q1.643 0 2.728-.792 1.115-.792 1.643-2.083.557-1.29.557-2.757 0-2.112-1.144-3.11-1.114-.997-2.962-.997h-5.867V16.47h5.984q2.112 0 3.667.763 1.554.762 2.405 2.229.85 1.467.85 3.579 0 1.965-.674 3.52-.645 1.525-1.79 2.58-1.114 1.028-2.551 1.585-1.408.528-2.963.528zm-1.643 6.336V16.47h2.816v21.12zm12.555 0-5.515-7.157 2.934-.352 5.866 7.392v.117zm8.448-7.041v-2.463h4.576q1.76 0 2.875-.733 1.114-.763 1.642-1.995.528-1.261.528-2.787 0-2.024-1.056-2.816-1.056-.821-2.816-.821h-5.749V16.47h5.867q2.992 0 4.84 1.525 1.848 1.496 1.848 4.576 0 1.438-.47 2.875-.44 1.408-1.408 2.581-.968 1.144-2.493 1.848-1.496.675-3.608.675zm-1.643 7.04V16.472h2.816v21.12z" style="font-size:29.3333px;line-height:1.25;font-family:Kufam;-inkscape-font-specification:Kufam;letter-spacing:0;word-spacing:0;stroke-width:4"/>
</svg>