<svg width="128" height="128" xml:space="preserve" xmlns="http://www.w3.org/2000/svg"><rect style="fill:#007fff;fill-opacity:1;stroke:none;stroke-width:12;stroke-linecap:round;stroke-linejoin:round;paint-order:markers fill stroke" width="128" height="128" ry="18.734"/><path d="M46.144 75.52v-8.064H61.12q5.76 0 9.408-2.4 3.648-2.496 5.376-6.528 1.728-4.128 1.728-9.12 0-6.624-3.456-9.216-3.456-2.688-9.216-2.688H46.144V29.44h19.2q9.792 0 15.84 4.992 6.048 4.896 6.048 14.976 0 4.704-1.536 9.408-1.44 4.608-4.608 8.448-3.168 3.744-8.16 6.048-4.896 2.208-11.808 2.208zm-5.376 23.04V29.44h9.216v69.12z" style="font-size:96px;line-height:1.25;font-family:Kufam;-inkscape-font-specification:Kufam;letter-spacing:0;word-spacing:0;fill:#fff;stroke-width:4"/><path d="m79.37 98.56 3.873-21.12h2.229L81.6 98.56Zm-8.33-6.453v-2.112h15.488v2.112zm1.76 6.453 3.872-21.12h2.23l-3.873 21.12Zm-1.056-12.555v-2.112h15.488v2.112z" aria-label="#" style="font-size:29.3333px;font-family:Kufam;-inkscape-font-specification:Kufam;letter-spacing:0;word-spacing:0;fill:#fff;stroke-width:4"/></svg>