<?xml version="1.0" encoding="UTF-8" standalone="no"?>
<!-- Created with Inkscape (http://www.inkscape.org/) -->

<svg
   width="128"
   height="128"
   viewBox="0 0 128 128"
   version="1.1"
   id="svg5"
   inkscape:version="1.2 (dc2aedaf03, 2022-05-15)"
   sodipodi:docname="logo_bubble_path.svg"
   inkscape:export-filename="Stranka jidla [Template].pdf"
   inkscape:export-xdpi="100"
   inkscape:export-ydpi="100"
   xml:space="preserve"
   xmlns:inkscape="http://www.inkscape.org/namespaces/inkscape"
   xmlns:sodipodi="http://sodipodi.sourceforge.net/DTD/sodipodi-0.dtd"
   xmlns="http://www.w3.org/2000/svg"
   xmlns:svg="http://www.w3.org/2000/svg"><sodipodi:namedview
     id="namedview7"
     pagecolor="#000000"
     bordercolor="#111111"
     borderopacity="1"
     inkscape:showpageshadow="0"
     inkscape:pageopacity="0"
     inkscape:pagecheckerboard="true"
     inkscape:deskcolor="#d1d1d1"
     inkscape:document-units="px"
     showgrid="false"
     showborder="false"
     shape-rendering="auto"
     inkscape:zoom="5.737093"
     inkscape:cx="126.98068"
     inkscape:cy="92.468432"
     inkscape:window-width="1920"
     inkscape:window-height="1017"
     inkscape:window-x="-8"
     inkscape:window-y="-8"
     inkscape:window-maximized="1"
     inkscape:current-layer="svg5"
     showguides="true"
     borderlayer="true" /><defs
     id="defs2" /><rect
     style="fill:#007fff;fill-opacity:1;stroke:none;stroke-width:12;stroke-linecap:round;stroke-linejoin:round;paint-order:markers fill stroke"
     id="rect9834"
     width="128"
     height="128"
     x="0"
     y="0"
     ry="18.734266" /><path
     d="m 46.144,75.519998 v -8.064 H 61.12 q 5.76,0 9.408,-2.4 3.648,-2.496 5.376,-6.528 1.728,-4.128 1.728,-9.12 0,-6.624 -3.456,-9.216 -3.456,-2.688 -9.216,-2.688 H 46.144 v -8.064 h 19.2 q 9.792,0 15.84,4.992 6.048,4.896 6.048,14.976 0,4.704 -1.536,9.408 -1.44,4.608 -4.608,8.448 -3.168,3.744 -8.16,6.048 -4.896,2.208 -11.808,2.208 z m -5.376,23.04 v -69.12 h 9.216 v 69.12 z"
     id="path456"
     style="font-size:96px;line-height:1.25;font-family:Kufam;-inkscape-font-specification:Kufam;letter-spacing:0px;word-spacing:0px;fill:#ffffff;stroke-width:4" /><g
     aria-label="#"
     id="text12020"
     style="font-size:29.3333px;font-family:Kufam;-inkscape-font-specification:Kufam;letter-spacing:0px;word-spacing:0px;fill:#ffffff;stroke-width:4"><path
       d="m 79.370679,98.559998 3.871996,-21.119976 h 2.229331 L 81.60001,98.559998 Z m -8.330657,-6.453326 v -2.111998 h 15.487982 v 2.111998 z m 1.759998,6.453326 3.871996,-21.119976 h 2.22933 L 75.029351,98.559998 Z M 71.744021,86.005345 v -2.111997 h 15.487982 v 2.111997 z"
       id="path448" /></g></svg>
