<?xml version="1.0" encoding="UTF-8" standalone="no"?>
<!-- Created with Inkscape (http://www.inkscape.org/) -->

<svg
   width="128"
   height="64"
   viewBox="0 0 128 64"
   version="1.1"
   id="svg5"
   inkscape:version="1.2 (dc2aedaf03, 2022-05-15)"
   sodipodi:docname="logo_wide_path.svg"
   inkscape:export-filename="Stranka jidla [Template].pdf"
   inkscape:export-xdpi="100"
   inkscape:export-ydpi="100"
   xmlns:inkscape="http://www.inkscape.org/namespaces/inkscape"
   xmlns:sodipodi="http://sodipodi.sourceforge.net/DTD/sodipodi-0.dtd"
   xmlns="http://www.w3.org/2000/svg"
   xmlns:svg="http://www.w3.org/2000/svg">
  <sodipodi:namedview
     id="namedview7"
     pagecolor="#ffffff"
     bordercolor="#111111"
     borderopacity="1"
     inkscape:showpageshadow="0"
     inkscape:pageopacity="0"
     inkscape:pagecheckerboard="true"
     inkscape:deskcolor="#d1d1d1"
     inkscape:document-units="px"
     showgrid="false"
     showborder="false"
     shape-rendering="auto"
     inkscape:zoom="4.0567373"
     inkscape:cx="56.572556"
     inkscape:cy="32.415212"
     inkscape:window-width="1920"
     inkscape:window-height="1017"
     inkscape:window-x="-8"
     inkscape:window-y="-8"
     inkscape:window-maximized="1"
     inkscape:current-layer="svg5"
     showguides="true" />
  <defs
     id="defs2" />
  <path
     d="M 11.843924,47.881049 V 36.822395 q 0,-0.3432 -0.01907,-0.934266 0,-0.591066 -0.03813,-1.182132 -0.01907,-0.591066 -0.09533,-0.934265 l 0.03813,-0.152533 q 0.838932,-0.3432 1.849465,-0.552933 1.029598,-0.209733 2.001997,-0.209733 1.201199,0 2.154531,0.362266 0.972399,0.362266 1.658798,1.067732 0.686399,0.686399 1.048666,1.677865 0.362266,0.991465 0.362266,2.268931 0,1.277465 -0.381333,2.287997 -0.381333,1.010532 -1.086799,1.715998 -0.705466,0.705466 -1.715998,1.086799 -1.010532,0.362266 -2.268931,0.362266 -0.591066,0 -1.182131,-0.133467 -0.572,-0.114399 -0.915199,-0.190666 l 0.114399,-1.563465 q 0.2288,0.133467 0.6864,0.247867 0.476666,0.114399 1.296531,0.114399 1.830398,0 2.745597,-1.010532 0.915199,-1.010532 0.915199,-2.917196 0,-1.925732 -0.934265,-2.879064 -0.934266,-0.972399 -2.650264,-0.972399 -0.648266,0 -1.258398,0.152534 -0.591066,0.133466 -0.972399,0.343199 l 0.285999,-0.533866 q 0.0572,0.286 0.07627,0.705466 0.03813,0.419466 0.03813,0.857999 v 11.973853 z"
     style="font-size:19.0666px;line-height:1.25;font-family:Kufam;-inkscape-font-specification:Kufam;letter-spacing:0px;word-spacing:0px;baseline-shift:sub;stroke-width:4"
     id="path321" />
  <path
     d="m 23.674044,34.129598 h 0.234666 q 0.704,0.381333 1.583999,0.674666 0.909332,0.263999 1.965331,0.410666 1.085332,0.146666 2.31733,0.146666 1.407999,0 2.493331,-0.263999 1.114665,-0.293333 1.730665,-0.938666 0.645332,-0.674666 0.645332,-1.847998 0,-1.407998 -0.821332,-2.023997 -0.791999,-0.616 -2.405331,-0.909333 l -2.58133,-0.469333 q -1.466665,-0.263999 -2.698664,-0.938665 -1.231998,-0.703999 -1.965331,-1.935998 -0.733332,-1.231999 -0.733332,-3.10933 0,-2.346664 1.085332,-3.842662 1.114665,-1.525332 3.079996,-2.229331 1.994665,-0.733332 4.634662,-0.733332 1.231998,0 2.434663,0.234666 1.231999,0.234667 2.023998,0.586666 v 2.698664 h -0.234666 q -0.703999,-0.352 -1.789332,-0.645333 -1.055998,-0.293333 -2.551997,-0.293333 -1.642664,0 -2.991996,0.410666 -1.319999,0.410667 -2.111998,1.319999 -0.762666,0.909332 -0.762666,2.375997 0,1.847998 0.967999,2.58133 0.967999,0.733333 2.669331,1.055999 l 2.58133,0.469333 q 1.495998,0.264 2.610664,0.909332 1.114665,0.645333 1.730664,1.730665 0.645333,1.055999 0.645333,2.639997 0,1.437332 -0.557333,2.522664 -0.557333,1.085332 -1.583998,1.818664 -0.997332,0.704 -2.405331,1.055999 -1.407998,0.352 -3.138663,0.352 -1.231998,0 -2.346664,-0.146667 -1.085332,-0.146666 -2.053331,-0.381333 -0.938665,-0.234666 -1.701331,-0.527999 z"
     id="path318"
     style="font-size:29.3333px;line-height:1.25;font-family:Kufam;-inkscape-font-specification:Kufam;letter-spacing:0px;word-spacing:0px;stroke-width:4" />
  <path
     d="M 54.884663,37.590927 V 16.470951 h 2.815997 v 21.119976 z m -13.141318,0 V 16.470951 h 2.815997 v 21.119976 z m 1.642665,-9.738655 v -2.463998 h 12.671985 v 2.463998 z"
     id="path315"
     style="font-size:29.3333px;line-height:1.25;font-family:Kufam;-inkscape-font-specification:Kufam;letter-spacing:0px;word-spacing:0px;stroke-width:4" />
  <path
     d="M 61.924656,37.590927 64.27132,23.510943 q 0.293333,-1.759998 0.850666,-3.109329 0.586666,-1.349332 1.554665,-2.287998 0.967999,-0.938665 2.49333,-1.407998 1.525332,-0.469333 3.725329,-0.469333 1.055999,0 2.111998,0.117333 1.085332,0.088 2.229331,0.352 l 0.05867,0.351999 q -0.088,0.586666 -0.146666,1.466665 -0.02933,0.879999 -0.02933,1.759998 0,0.879999 0,1.466665 V 37.590927 H 74.303309 V 20.225614 q 0,-0.586666 0,-1.085332 0.02933,-0.528 0.117333,-0.997333 l 0.469333,0.850666 q -0.381333,-0.176 -0.938666,-0.234666 -0.527999,-0.05867 -1.173332,-0.05867 -1.935998,0 -3.079996,0.528 -1.114666,0.527999 -1.701332,1.583998 -0.557332,1.055999 -0.850665,2.698663 L 64.79932,37.590927 Z m 2.93333,-6.453326 v -2.463997 h 10.618655 v 2.463997 z"
     id="path312"
     style="font-size:29.3333px;line-height:1.25;font-family:Kufam;-inkscape-font-specification:Kufam;letter-spacing:0px;word-spacing:0px;stroke-width:4" />
  <path
     d="m 84.393986,31.254934 v -2.58133 h 5.045328 q 1.642665,0 2.727997,-0.791999 1.114665,-0.791999 1.642664,-2.082664 0.557333,-1.290666 0.557333,-2.75733 0,-2.111998 -1.143999,-3.10933 -1.114665,-0.997332 -2.962663,-0.997332 h -5.86666 v -2.463998 h 5.983993 q 2.111998,0 3.666663,0.762666 1.554665,0.762666 2.40533,2.229331 0.850666,1.466665 0.850666,3.578663 0,1.965331 -0.674666,3.519995 -0.645332,1.525332 -1.789331,2.581331 -1.114666,1.026665 -2.551997,1.583998 -1.407999,0.527999 -2.962663,0.527999 z m -1.642665,6.335993 V 16.470951 h 2.815997 v 21.119976 z m 12.554653,0 -5.514661,-7.157325 2.93333,-0.352 5.86666,7.391992 v 0.117333 z"
     id="path309"
     style="font-size:29.3333px;line-height:1.25;font-family:Kufam;-inkscape-font-specification:Kufam;letter-spacing:0px;word-spacing:0px;stroke-width:4" />
  <path
     d="m 103.75396,30.550935 v -2.463997 h 4.57599 q 1.76,0 2.87466,-0.733332 1.11467,-0.762666 1.64267,-1.994665 0.528,-1.261332 0.528,-2.786663 0,-2.023998 -1.056,-2.815997 -1.056,-0.821332 -2.816,-0.821332 h -5.74932 v -2.463998 h 5.86666 q 2.99199,0 4.83999,1.525332 1.848,1.495998 1.848,4.575995 0,1.437331 -0.46933,2.874663 -0.44,1.407998 -1.408,2.58133 -0.968,1.143999 -2.49333,1.847998 -1.496,0.674666 -3.608,0.674666 z m -1.64267,7.039992 V 16.470951 h 2.816 v 21.119976 z"
     id="path306"
     style="font-size:29.3333px;line-height:1.25;font-family:Kufam;-inkscape-font-specification:Kufam;letter-spacing:0px;word-spacing:0px;stroke-width:4" />
</svg>
